<mxfile host="app.diagrams.net" agent="Mozilla/5.0 (Windows NT 10.0; Win64; x64) AppleWebKit/537.36 (KHTML, like Gecko) Chrome/127.0.0.0 Safari/537.36" version="24.7.6">
  <diagram name="Page-1" id="eC8RitOaqBmgOdNWkTPx">
    <mxGraphModel grid="1" page="1" gridSize="10" guides="1" tooltips="1" connect="1" arrows="1" fold="1" pageScale="1" pageWidth="850" pageHeight="1100" math="0" shadow="0">
      <root>
        <mxCell id="0" />
        <mxCell id="1" parent="0" />
        <mxCell id="VVHbO7mROLnMlmSW387z-1" value="h" style="ellipse;whiteSpace=wrap;html=1;aspect=fixed;" vertex="1" parent="1">
          <mxGeometry x="400" y="80" width="40" height="40" as="geometry" />
        </mxCell>
        <mxCell id="VVHbO7mROLnMlmSW387z-2" value="a" style="ellipse;whiteSpace=wrap;html=1;aspect=fixed;" vertex="1" parent="1">
          <mxGeometry x="320" y="160" width="40" height="40" as="geometry" />
        </mxCell>
        <mxCell id="VVHbO7mROLnMlmSW387z-3" value="o" style="ellipse;whiteSpace=wrap;html=1;aspect=fixed;" vertex="1" parent="1">
          <mxGeometry x="160" y="320" width="40" height="40" as="geometry" />
        </mxCell>
        <mxCell id="VVHbO7mROLnMlmSW387z-4" value="l" style="ellipse;whiteSpace=wrap;html=1;aspect=fixed;" vertex="1" parent="1">
          <mxGeometry x="240" y="240" width="40" height="40" as="geometry" />
        </mxCell>
        <mxCell id="VVHbO7mROLnMlmSW387z-6" value="" style="endArrow=none;html=1;rounded=0;exitX=1;exitY=0;exitDx=0;exitDy=0;entryX=0;entryY=1;entryDx=0;entryDy=0;" edge="1" parent="1" source="VVHbO7mROLnMlmSW387z-2" target="VVHbO7mROLnMlmSW387z-1">
          <mxGeometry width="50" height="50" relative="1" as="geometry">
            <mxPoint x="370" y="160" as="sourcePoint" />
            <mxPoint x="400" y="120" as="targetPoint" />
          </mxGeometry>
        </mxCell>
        <mxCell id="VVHbO7mROLnMlmSW387z-7" value="l" style="ellipse;whiteSpace=wrap;html=1;aspect=fixed;" vertex="1" parent="1">
          <mxGeometry x="400" y="240" width="40" height="40" as="geometry" />
        </mxCell>
        <mxCell id="VVHbO7mROLnMlmSW387z-8" value="" style="endArrow=none;html=1;rounded=0;exitX=1;exitY=0;exitDx=0;exitDy=0;entryX=0;entryY=1;entryDx=0;entryDy=0;" edge="1" parent="1" source="VVHbO7mROLnMlmSW387z-3" target="VVHbO7mROLnMlmSW387z-4">
          <mxGeometry width="50" height="50" relative="1" as="geometry">
            <mxPoint x="228" y="332" as="sourcePoint" />
            <mxPoint x="280" y="280" as="targetPoint" />
          </mxGeometry>
        </mxCell>
        <mxCell id="VVHbO7mROLnMlmSW387z-9" value="" style="endArrow=none;html=1;rounded=0;exitX=1;exitY=0;exitDx=0;exitDy=0;entryX=0;entryY=1;entryDx=0;entryDy=0;" edge="1" parent="1" source="VVHbO7mROLnMlmSW387z-4" target="VVHbO7mROLnMlmSW387z-2">
          <mxGeometry width="50" height="50" relative="1" as="geometry">
            <mxPoint x="300" y="240" as="sourcePoint" />
            <mxPoint x="352" y="188" as="targetPoint" />
          </mxGeometry>
        </mxCell>
        <mxCell id="VVHbO7mROLnMlmSW387z-10" value="" style="endArrow=none;html=1;rounded=0;exitX=0;exitY=0;exitDx=0;exitDy=0;entryX=1;entryY=1;entryDx=0;entryDy=0;" edge="1" parent="1" source="VVHbO7mROLnMlmSW387z-7" target="VVHbO7mROLnMlmSW387z-2">
          <mxGeometry width="50" height="50" relative="1" as="geometry">
            <mxPoint x="327" y="246" as="sourcePoint" />
            <mxPoint x="353" y="200" as="targetPoint" />
          </mxGeometry>
        </mxCell>
        <mxCell id="VVHbO7mROLnMlmSW387z-12" value="" style="endArrow=none;html=1;rounded=0;exitX=1;exitY=1;exitDx=0;exitDy=0;entryX=0;entryY=0;entryDx=0;entryDy=0;" edge="1" parent="1" source="VVHbO7mROLnMlmSW387z-1" target="VVHbO7mROLnMlmSW387z-16">
          <mxGeometry width="50" height="50" relative="1" as="geometry">
            <mxPoint x="440" y="120" as="sourcePoint" />
            <mxPoint x="490" y="160" as="targetPoint" />
            <Array as="points">
              <mxPoint x="460" y="140" />
            </Array>
          </mxGeometry>
        </mxCell>
        <mxCell id="VVHbO7mROLnMlmSW387z-13" value="3" style="ellipse;whiteSpace=wrap;html=1;aspect=fixed;" vertex="1" parent="1">
          <mxGeometry x="640" y="320" width="40" height="40" as="geometry" />
        </mxCell>
        <mxCell id="VVHbO7mROLnMlmSW387z-14" value="2" style="ellipse;whiteSpace=wrap;html=1;aspect=fixed;" vertex="1" parent="1">
          <mxGeometry x="560" y="240" width="40" height="40" as="geometry" />
        </mxCell>
        <mxCell id="VVHbO7mROLnMlmSW387z-15" value="4" style="ellipse;whiteSpace=wrap;html=1;aspect=fixed;" vertex="1" parent="1">
          <mxGeometry x="720" y="400" width="40" height="40" as="geometry" />
        </mxCell>
        <mxCell id="VVHbO7mROLnMlmSW387z-16" value="1" style="ellipse;whiteSpace=wrap;html=1;aspect=fixed;" vertex="1" parent="1">
          <mxGeometry x="480" y="160" width="40" height="40" as="geometry" />
        </mxCell>
        <mxCell id="VVHbO7mROLnMlmSW387z-17" value="6" style="ellipse;whiteSpace=wrap;html=1;aspect=fixed;" vertex="1" parent="1">
          <mxGeometry x="800" y="480" width="40" height="40" as="geometry" />
        </mxCell>
        <mxCell id="VVHbO7mROLnMlmSW387z-18" value="5" style="ellipse;whiteSpace=wrap;html=1;aspect=fixed;" vertex="1" parent="1">
          <mxGeometry x="640" y="480" width="40" height="40" as="geometry" />
        </mxCell>
        <mxCell id="VVHbO7mROLnMlmSW387z-22" value="" style="endArrow=none;html=1;rounded=0;exitX=0;exitY=0;exitDx=0;exitDy=0;entryX=1;entryY=1;entryDx=0;entryDy=0;" edge="1" parent="1" source="VVHbO7mROLnMlmSW387z-14" target="VVHbO7mROLnMlmSW387z-16">
          <mxGeometry width="50" height="50" relative="1" as="geometry">
            <mxPoint x="572" y="252" as="sourcePoint" />
            <mxPoint x="520" y="200" as="targetPoint" />
          </mxGeometry>
        </mxCell>
        <mxCell id="VVHbO7mROLnMlmSW387z-23" value="" style="endArrow=none;html=1;rounded=0;exitX=0;exitY=0;exitDx=0;exitDy=0;entryX=1;entryY=1;entryDx=0;entryDy=0;" edge="1" parent="1" source="VVHbO7mROLnMlmSW387z-13" target="VVHbO7mROLnMlmSW387z-14">
          <mxGeometry width="50" height="50" relative="1" as="geometry">
            <mxPoint x="652" y="332" as="sourcePoint" />
            <mxPoint x="600" y="280" as="targetPoint" />
          </mxGeometry>
        </mxCell>
        <mxCell id="VVHbO7mROLnMlmSW387z-27" value="" style="endArrow=none;html=1;rounded=0;exitX=0;exitY=1;exitDx=0;exitDy=0;entryX=1;entryY=0;entryDx=0;entryDy=0;" edge="1" parent="1" source="VVHbO7mROLnMlmSW387z-15" target="VVHbO7mROLnMlmSW387z-18">
          <mxGeometry width="50" height="50" relative="1" as="geometry">
            <mxPoint x="692" y="480" as="sourcePoint" />
            <mxPoint x="640" y="428" as="targetPoint" />
          </mxGeometry>
        </mxCell>
        <mxCell id="VVHbO7mROLnMlmSW387z-28" value="" style="endArrow=none;html=1;rounded=0;exitX=0;exitY=0;exitDx=0;exitDy=0;entryX=1;entryY=1;entryDx=0;entryDy=0;" edge="1" parent="1" source="VVHbO7mROLnMlmSW387z-15" target="VVHbO7mROLnMlmSW387z-13">
          <mxGeometry width="50" height="50" relative="1" as="geometry">
            <mxPoint x="742" y="422" as="sourcePoint" />
            <mxPoint x="690" y="370" as="targetPoint" />
          </mxGeometry>
        </mxCell>
        <mxCell id="VVHbO7mROLnMlmSW387z-29" value="" style="endArrow=none;html=1;rounded=0;exitX=1;exitY=1;exitDx=0;exitDy=0;entryX=0;entryY=0;entryDx=0;entryDy=0;" edge="1" parent="1" source="VVHbO7mROLnMlmSW387z-15" target="VVHbO7mROLnMlmSW387z-17">
          <mxGeometry width="50" height="50" relative="1" as="geometry">
            <mxPoint x="772" y="474" as="sourcePoint" />
            <mxPoint x="720" y="526" as="targetPoint" />
          </mxGeometry>
        </mxCell>
      </root>
    </mxGraphModel>
  </diagram>
</mxfile>
